<svg xmlns="http://www.w3.org/2000/svg" viewBox="0 0 24 24" fill="none">
  <path d="M12 15.4a3.4 3.4 0 1 0 0-6.8 3.4 3.4 0 0 0 0 6.8ZM19.4 15a1.8 1.8 0 0 0 .36 1.98l.06.06a2.2 2.2 0 1 1-3.11 3.11l-.06-.06a1.8 1.8 0 0 0-1.98-.36 1.8 1.8 0 0 0-1.09 1.65v.17a2.2 2.2 0 1 1-4.4 0v-.09A1.8 1.8 0 0 0 8 19.75a1.8 1.8 0 0 0-1.98.36l-.06.06a2.2 2.2 0 1 1-3.11-3.11l.06-.06A1.8 1.8 0 0 0 3.27 15a1.8 1.8 0 0 0-1.65-1.09h-.17a2.2 2.2 0 1 1 0-4.4h.09A1.8 1.8 0 0 0 3.25 8c.2-.64.06-1.34-.36-1.86l-.06-.06a2.2 2.2 0 1 1 3.11-3.11l.06.06A1.8 1.8 0 0 0 8 3.27h.02A1.8 1.8 0 0 0 9.1 1.62v-.17a2.2 2.2 0 1 1 4.4 0v.09A1.8 1.8 0 0 0 15 3.25c.64.2 1.34.06 1.86-.36l.06-.06a2.2 2.2 0 1 1 3.11 3.11l-.06.06A1.8 1.8 0 0 0 19.73 8v.02a1.8 1.8 0 0 0 1.65 1.09h.17a2.2 2.2 0 1 1 0 4.4h-.09A1.8 1.8 0 0 0 19.4 15Z" stroke="currentColor" stroke-width="1.7" stroke-linecap="round" stroke-linejoin="round"/>
</svg>
